<svg id="Layer_1" data-name="Layer 1" xmlns="http://www.w3.org/2000/svg" viewBox="0 0 1840.08 796.14"><defs><style>.cls-1{fill:#393e46;}.cls-2{fill:#231f20;}.cls-3{fill:#00fff5;}</style></defs><polygon class="cls-1" points="1840.08 98.94 1840.08 220.73 1292.02 220.73 1276.79 205.5 1208.29 137 1208.29 121.77 1200.68 129.39 1147.4 182.69 1101.72 182.69 1177.84 106.55 1185.46 98.96 1185.46 98.94 1086.5 0 1208.29 0 1208.29 98.94 1840.08 98.94"/><polygon class="cls-1" points="1086.5 121.77 1086.5 182.69 1056.03 182.69 1010.38 228.34 964.71 274.01 827.7 274.01 774.41 327.3 660.23 213.12 538.45 213.12 538.45 182.69 591.41 129.72 591.71 130.03 592.04 129.71 675.43 213.12 721.13 213.12 782.03 152.22 1010.38 152.22 1025.61 137 1010.38 121.77 1086.5 121.77"/><rect class="cls-1" x="591.49" y="129.5" width="0.46" height="0.44" transform="translate(81.57 456.37) rotate(-45)"/><path class="cls-1" d="M608.64,492.37l-2,2H538.45v.7h68.16l2.73-2.72Zm340.85,9.3-76.12,76.11-76.12-76.11h-.7l.7.7,76.12,76.12,76.12-76.12.7-.7Zm83.73-83.73.35.35,52.93-52.93v-.71Zm53.28-114.18v.7l121.79,121.79v-.7Z"/><path class="cls-1" d="M1086.5,304.46v60.9l-52.93,52.93,7.26,7.26h45.67v76.12H950.19l-.7.7-76.12,76.12-76.12-76.12-.7-.7H660.23v-60.9l-51.59,51.6h.7l-2.73,2.72H538.45V674.35L660.23,796.14h548.06V426.25Zm0,369.89H705.91l-45.68-45.67v-5.22H1086.5Z"/><polygon class="cls-1" points="609.34 492.37 606.61 495.09 538.45 495.09 538.45 492.37 609.34 492.37"/><polygon class="cls-1" points="660.23 408.95 623.13 371.83 538.45 371.83 538.45 243.56 614.57 319.68 660.23 365.36 698.29 403.42 660.23 441.48 660.23 408.95"/><polygon class="cls-2" points="660.23 408.94 660.23 411.03 622.51 373.3 538.44 373.3 538.44 371.84 623.13 371.84 660.23 408.94"/><polygon class="cls-3" points="1185.46 98.94 1185.46 98.96 1177.84 106.55 1101.72 182.69 1086.5 197.91 1086.5 121.77 1010.38 121.77 1025.61 137 1010.38 152.22 782.03 152.22 721.13 213.12 675.43 213.12 592.04 129.71 591.73 129.4 721.13 0 1086.5 0 1185.46 98.94"/><polygon class="cls-1" points="1840.08 403.42 1840.08 525.2 1566.06 525.2 1444.26 403.42 1840.08 403.42"/><polygon class="cls-1" points="1840.08 251.18 1840.08 372.96 1413.82 372.96 1330.08 289.24 1330.08 251.18 1840.08 251.18"/><path class="cls-3" d="M1086.5,303.76v.7l121.79,121.79v-.7Zm-52.93,114.53,52.93-52.93v-.71l-53.28,53.29ZM873.37,577.78l-76.12-76.11h-.7l.7.7,76.12,76.12,76.12-76.12.7-.7h-.7Z"/><path class="cls-3" d="M1292,220.73l-15.23-15.23-68.5-68.5V121.77l-7.61,7.62-53.28,53.29h-45.68l-15.22,15.23V182.68H1056l-45.65,45.66L964.71,274h-137L774.41,327.3,660.23,213.12H538.45v30.44l76.12,76.12,45.66,45.68,38.06,38.06,98.26,98.25h.7l76.12,76.11,76.12-76.11h.7l83-83,.35-.35-.35-.35,53.28-53.29V303.76l121.79,121.79v-45l-38.06-38.06V220.73ZM873.37,411l-76.12-76.11H949.49Z"/><polygon class="cls-1" points="949.49 334.91 873.37 411.02 797.25 334.91 949.49 334.91"/><polygon class="cls-3" points="1588.87 540.42 1421.42 540.42 1208.29 327.3 1208.29 220.73 1330.08 220.73 1330.08 289.24 1413.82 372.96 1421.42 372.96 1451.87 403.42 1444.26 403.42 1566.06 525.2 1573.65 525.2 1588.87 540.42"/><polygon class="cls-1" points="659.62 61.51 591.41 129.72 538.43 76.75 538.43 61.51 659.62 61.51"/><polygon class="cls-1" points="660.25 61.51 652.3 69.46 592.04 129.71 591.71 130.03 591.41 129.72 659.62 61.51 660.25 61.51"/><polygon class="cls-3" points="660.23 410.59 660.23 440.22 607.37 492.37 315.12 492.37 165.05 344.29 120.04 344.29 120.04 492.37 0 492.37 0 77.73 120.04 77.73 120.04 225.81 210.07 225.81 360.13 373.9 623.06 373.9 660.23 410.59"/><polygon class="cls-3" points="538.43 76.75 591.41 129.72 538.45 182.69 538.45 185.32 473.95 185.32 363.13 296.14 286.93 219.94 432.4 74.48 538.43 74.48 538.43 76.75"/><rect class="cls-3" x="591.41" y="129.59" width="0.32" height="0.14" transform="translate(81.61 456.33) rotate(-45.01)"/></svg>